<svg width="100" height="40" fill="none" xmlns="http://www.w3.org/2000/svg"><path d="M6.992 24.232H.262L9.409 0h6.902l9.145 24.232h-6.73l-1.553-4.327H8.545l-1.553 4.327zm3.106-8.827h5.521L12.86 7.27l-2.76 8.135zM42.034 0h6.212v17.655c0 2.423-.553 4.189-1.657 5.297-1.081 1.084-2.83 1.627-5.245 1.627h-7.937c-2.416 0-4.176-.543-5.28-1.627-1.082-1.108-1.622-2.874-1.622-5.297V0h6.211v17.655c0 1.385.69 2.077 2.071 2.077h5.176c1.38 0 2.07-.692 2.07-2.077V0zm10.353 0H66.88c2.415 0 4.164.554 5.245 1.662 1.104 1.084 1.656 2.838 1.656 5.262v3.115c0 1.916-.322 3.404-.966 4.466-.621 1.061-1.622 1.765-3.002 2.111l4.314 7.616h-6.73l-3.968-7.27h-4.832v7.27h-6.211V0zM67.57 6.924c0-1.385-.69-2.078-2.07-2.078h-6.903v7.27H65.5c1.38 0 2.07-.692 2.07-2.077V6.924zm13.968 17.308h-6.73L83.953 0h6.902L100 24.232h-6.73l-1.552-4.327H83.09l-1.553 4.327zm3.105-8.827h5.522l-2.76-8.135-2.762 8.135zM.107 38.393c1.445.107 2.585.16 3.418.16a.364.364 0 00.374-.375v-.375H1.602c-.484 0-.872-.146-1.164-.439C.146 37.071 0 36.682 0 36.196v-.375c0-.486.146-.875.438-1.168.292-.293.68-.44 1.164-.44h3.632v1.394h-2.99a.364.364 0 00-.374.375.364.364 0 00.373.375h1.923c.484 0 .872.146 1.164.44.292.292.438.681.438 1.167v.429c0 .486-.146.875-.438 1.168-.292.293-.68.439-1.164.439-1.26 0-2.614-.071-4.06-.214v-1.393zm10.362 1.5c-.691.071-1.368.107-2.03.107-.484 0-.872-.146-1.164-.44-.292-.292-.438-.681-.438-1.167V35.66h-.64v-1.446h.64l.214-1.286h1.655v1.286h1.335v1.446H8.706v2.465a.364.364 0 00.374.375h1.389v1.393zm2.893-5.465v5.465h-1.869v-4.018h-.801v-1.447h2.67zm-1.869-2.143h1.87v1.5h-1.87v-1.5zm7.961 7.501a33.492 33.492 0 01-3.525.214c-.484 0-.872-.146-1.164-.44-.292-.292-.438-.681-.438-1.167v-2.465c0-.535.15-.953.448-1.253.307-.307.727-.461 1.26-.461h3.419v1.446h-2.83c-.285 0-.428.143-.428.429v2.09a.364.364 0 00.374.374c.64 0 1.602-.053 2.884-.16v1.393zm2.722-2.143v2.25h-1.87v-7.5h1.87v3.803h.854l1.175-1.982h1.976l-1.602 2.732 1.602 2.947h-1.976l-1.228-2.25h-.801zm6.621-2.197c-.285 0-.428.143-.428.429v.589h1.816v-.59c0-.285-.142-.428-.427-.428h-.961zm3.044 4.34a36.44 36.44 0 01-3.739.214c-.484 0-.872-.146-1.164-.44-.292-.292-.438-.681-.438-1.167V35.82c0-.536.15-.953.449-1.253.306-.308.726-.461 1.26-.461h2.136c.534 0 .95.153 1.25.46.306.3.46.718.46 1.254v1.982h-3.686v.429a.364.364 0 00.374.375c.705 0 1.738-.053 3.098-.16v1.339zm4.429-4.018a3.38 3.38 0 00-1.39.321v3.804h-1.869v-5.68h1.656l.107.697c.612-.535 1.253-.803 1.922-.803h.481v1.66h-.908zm1.44 2.625c1.446.107 2.586.16 3.419.16a.364.364 0 00.374-.375v-.375h-2.297c-.484 0-.872-.146-1.164-.439-.292-.293-.438-.682-.438-1.168v-.375c0-.486.146-.875.438-1.168.292-.293.68-.44 1.164-.44h3.632v1.394h-2.99a.364.364 0 00-.374.375.364.364 0 00.373.375h1.923c.484 0 .872.146 1.164.44.292.292.438.681.438 1.167v.429c0 .486-.146.875-.438 1.168-.292.293-.68.439-1.164.439-1.26 0-2.614-.071-4.06-.214v-1.393zm14.633 1.393a33.492 33.492 0 01-3.525.214c-.484 0-.872-.146-1.164-.44-.292-.292-.438-.681-.438-1.167v-2.465c0-.535.15-.953.449-1.253.306-.307.726-.461 1.26-.461h3.418v1.446h-2.83c-.285 0-.428.143-.428.429v2.09a.364.364 0 00.374.374c.641 0 1.602-.053 2.884-.16v1.393zm6.621-1.5c0 .535-.154.957-.46 1.264-.299.3-.715.45-1.25.45h-2.456c-.534 0-.954-.15-1.26-.45-.3-.307-.45-.729-.45-1.264V35.82c0-.536.15-.953.45-1.253.306-.308.726-.461 1.26-.461h2.456c.535 0 .951.153 1.25.46.306.3.46.718.46 1.254v2.465zm-1.87-2.304c0-.286-.142-.429-.427-.429h-1.282c-.285 0-.427.143-.427.429v2.143c0 .286.142.428.427.428h1.282c.285 0 .427-.142.427-.428v-2.143zm5.714 3.911A9.233 9.233 0 0161.44 40c-.427 0-.786-.146-1.078-.44-.292-.292-.438-.681-.438-1.167v-6h1.869v5.732a.364.364 0 00.374.375h.64v1.393zm3.63 0A9.236 9.236 0 0165.07 40c-.427 0-.786-.146-1.078-.44-.292-.292-.438-.681-.438-1.167v-6h1.869v5.732a.364.364 0 00.374.375h.64v1.393zm2.935-4.447c-.285 0-.427.143-.427.429v.589h1.816v-.59c0-.285-.142-.428-.427-.428h-.962zm3.045 4.34a36.44 36.44 0 01-3.739.214c-.484 0-.872-.146-1.164-.44-.292-.292-.438-.681-.438-1.167V35.82c0-.536.15-.953.448-1.253.307-.308.727-.461 1.26-.461h2.137c.534 0 .95.153 1.25.46.306.3.46.718.46 1.254v1.982h-3.686v.429a.364.364 0 00.374.375c.705 0 1.738-.053 3.098-.16v1.339zm6.191 0a33.49 33.49 0 01-3.525.214c-.484 0-.873-.146-1.165-.44-.291-.292-.437-.681-.437-1.167v-2.465c0-.535.15-.953.448-1.253.306-.307.726-.461 1.26-.461h3.419v1.446h-2.83c-.286 0-.428.143-.428.429v2.09a.364.364 0 00.374.374c.64 0 1.602-.053 2.884-.16v1.393zm4.804.107c-.69.071-1.367.107-2.03.107-.483 0-.872-.146-1.164-.44-.291-.292-.438-.681-.438-1.167V35.66h-.64v-1.446h.64l.214-1.286h1.656v1.286h1.335v1.446H81.65v2.465a.364.364 0 00.374.375h1.388v1.393zm2.894-5.465v5.465h-1.87v-4.018h-.8v-1.447h2.67zm-1.87-2.143h1.87v1.5h-1.87v-1.5zm8.709 6.001c0 .535-.153.957-.46 1.264-.298.3-.715.45-1.249.45h-2.456c-.535 0-.955-.15-1.26-.45-.3-.307-.45-.729-.45-1.264V35.82c0-.536.15-.953.45-1.253.305-.308.725-.461 1.26-.461h2.456c.534 0 .95.153 1.25.46.306.3.46.718.46 1.254v2.465zm-1.869-2.304c0-.286-.142-.429-.427-.429h-1.282c-.285 0-.427.143-.427.429v2.143c0 .286.142.428.427.428h1.282c.285 0 .427-.142.427-.428v-2.143zm5.98-.322c-.377 0-.804.072-1.281.215v4.018h-1.87v-5.68h1.656l.107.537a3.71 3.71 0 011.025-.483c.356-.107.655-.16.897-.16h.481c.484 0 .872.146 1.164.44.292.292.438.681.438 1.167v4.179h-1.869v-3.858a.364.364 0 00-.374-.375h-.374z" fill="#07060B"/></svg>