<svg width="32" height="32" fill="none" xmlns="http://www.w3.org/2000/svg"><g clip-path="url(#clip0_8_116)"><path d="M30.667 16l-3.254-3.72.454-4.92-4.814-1.093L20.533 2 16 3.947 11.467 2l-2.52 4.253-4.814 1.08.454 4.934L1.333 16l3.254 3.72-.454 4.933 4.814 1.094L11.467 30 16 28.04l4.533 1.947 2.52-4.254 4.814-1.093-.454-4.92L30.667 16zm-17.214 6.293l-5.066-5.08 1.973-1.973 3.093 3.107 7.8-7.827 1.974 1.973-9.774 9.8z" fill="#46F4DB"/></g><defs><clipPath id="clip0_8_116"><path fill="#fff" d="M0 0h32v32H0z"/></clipPath></defs></svg>