<svg width="32" height="32" fill="none" xmlns="http://www.w3.org/2000/svg"><g clip-path="url(#clip0_8_110)"><path d="M15.987 2.667C8.627 2.667 2.667 8.64 2.667 16s5.96 13.333 13.32 13.333c7.373 0 13.346-5.973 13.346-13.333S23.36 2.667 15.987 2.667zm.013 24c-5.893 0-10.667-4.774-10.667-10.667S10.107 5.333 16 5.333 26.667 10.107 26.667 16 21.893 26.667 16 26.667zm4.667-12c1.106 0 2-.894 2-2 0-1.107-.894-2-2-2-1.107 0-2 .893-2 2 0 1.106.893 2 2 2zm-9.334 0c1.107 0 2-.894 2-2 0-1.107-.893-2-2-2-1.106 0-2 .893-2 2 0 1.106.894 2 2 2zM16 23.333c3.107 0 5.747-1.946 6.813-4.666H9.187c1.066 2.72 3.706 4.666 6.813 4.666z" fill="#46F4DB"/></g><defs><clipPath id="clip0_8_110"><path fill="#fff" d="M0 0h32v32H0z"/></clipPath></defs></svg>